<?xml version="1.0" encoding="UTF-8"?>
<svg width="240" height="130" version="1.1" viewBox="0 0 744.09 1052.4" xmlns="http://www.w3.org/2000/svg" xmlns:cc="http://creativecommons.org/ns#" xmlns:dc="http://purl.org/dc/elements/1.1/" xmlns:rdf="http://www.w3.org/1999/02/22-rdf-syntax-ns#">
<path d="m-419.31-3.9161e-5h1582.7c99.748 0 180.05 80.302 180.05 180.05v632.48c0 99.747-80.302 180.05-180.05 180.05h-1582.7c-99.747 0-180.05-80.302-180.05-180.05v-632.48c0-99.747 80.302-180.05 180.05-180.05z" fill="#fff" fill-rule="evenodd"/>
<path d="m-308.51 357.79h363.03v586.31h-363.03z" fill="#038141" fill-rule="evenodd"/>
<path d="m748.7 357.79h363.03v586.31h-363.03z" fill="#e63e11" fill-rule="evenodd"/>
<path d="m-382.38 357.79h90.648c75.45 0 136.19 60.741 136.19 136.19v313.93c0 75.45-60.741 136.19-136.19 136.19h-90.648c-75.45 0-136.19-60.741-136.19-136.19v-313.93c0-75.45 60.741-136.19 136.19-136.19z" fill="#038141" fill-rule="evenodd"/>
<path d="m570.96 357.79h363.03v586.31h-363.03z" fill="#ee8100" fill-rule="evenodd"/>
<path d="m636.6 779.8v-265.8h99.208q32.945 0 57.653 10.482 24.708 10.482 41.181 28.452 16.846 17.97 25.083 42.304 8.6107 23.96 8.6107 51.289 0 30.324-9.3596 55.032-9.3596 24.334-26.955 41.929-17.221 17.221-41.929 26.955-24.334 9.3592-54.284 9.3592h-99.208zm169.22-133.28q0-17.595-4.8668-31.821-4.4924-14.6-13.477-25.083-8.9848-10.482-22.088-16.098-13.103-5.6155-29.575-5.6155h-37.811v157.98h37.811q16.847 0 29.95-5.99 13.103-5.9899 21.713-16.472 8.9849-10.857 13.477-25.083 4.8668-14.6 4.8668-31.821z" fill="#fff" fill-opacity=".44606"/>
<path d="m188.26 357.79h383.32v586.31h-383.32z" fill="#fecb02" fill-rule="evenodd"/>
<path d="m206.87 357.79h-363.03v586.31h363.03z" fill="#85bb2f" fill-rule="evenodd"/>
<path d="m293.25 642.41q0-23.96 8.9849-47.545 8.9849-23.96 26.206-42.678 17.221-18.718 41.929-30.324 24.708-11.605 56.155-11.605 37.437 0 64.766 16.098 27.703 16.098 41.181 41.929l-47.171 32.945q-4.4924-10.482-11.605-17.221-6.7386-7.113-14.975-11.231-8.2361-4.4924-16.847-5.9899-8.6105-1.8718-16.847-1.8718-17.595 0-30.698 7.113-13.103 7.113-21.713 18.344-8.6105 11.231-12.729 25.457-4.118 14.226-4.118 28.826 0 15.724 4.8668 30.324 4.8668 14.6 13.852 25.831 9.3592 11.231 22.088 17.97 13.103 6.3643 29.201 6.3643 8.2362 0 16.847-1.8718 8.9848-2.2462 16.847-6.3644 8.2361-4.4924 14.975-11.231 6.7386-7.113 10.857-17.221l50.165 29.575q-5.9899 14.6-17.97 26.206-11.605 11.605-26.955 19.467t-32.57 11.98q-17.221 4.118-33.693 4.118-28.826 0-53.16-11.605-23.96-11.98-41.555-31.447-17.221-19.467-26.955-44.176-9.3592-24.708-9.3592-50.165z" fill="#fff" fill-opacity=".44606"/>
<path d="m154.55 720.9q0 17.221-7.113 29.95-7.113 12.729-19.467 21.339-12.354 8.2362-28.826 12.729-16.472 4.118-34.816 4.118h-129.53v-265.8h147.88q13.852 0 25.083 5.9899 11.231 5.9899 19.093 15.724 7.8617 9.3592 11.98 21.713 4.4924 11.98 4.4924 24.708 0 19.093-9.7336 35.939-9.3592 16.847-28.452 25.457 22.837 6.7386 35.94 23.96 13.477 17.221 13.477 44.176zm-62.52-12.354q0-12.354-7.113-20.965-7.113-8.6105-17.97-8.6105h-70.756v58.027h68.135q11.98 0 19.842-7.8617 7.8618-7.8618 7.8618-20.59zm-95.839-132.9v55.032h60.273q10.108 0 17.97-6.7386 7.8617-6.7386 7.8617-20.965 0-13.103-7.113-20.216-6.7386-7.113-16.472-7.113h-62.52z" fill="#fff" fill-opacity=".44606"/>
<path d="m7.726 281.62h39.326c108.7 0 196.21 87.509 196.21 196.21v343.94c0 108.7-87.509 196.21-196.21 196.21h-39.326c-108.7 0-196.21-87.509-196.21-196.21v-343.94c0-108.7 87.509-196.21 196.21-196.21z" fill="#0039ff" fill-opacity=".62974" fill-rule="evenodd" stroke="#fff" stroke-linecap="round" stroke-linejoin="round" stroke-width="61.032"/>
<path d="m-384.71 514h55.407l96.962 265.8h-62.894l-20.59-59.525h-82.736l-20.216 59.525h-62.894l96.962-265.8zm58.776 163.97-31.073-93.967-31.821 93.967h62.894z" fill="#fff" fill-opacity=".44606"/>
<path d="m1069.6 357.79h90.647c75.45 0 136.19 60.741 136.19 136.19v313.93c0 75.45-60.742 136.19-136.19 136.19h-90.647c-75.45 0-136.19-60.741-136.19-136.19v-313.93c0-75.45 60.742-136.19 136.19-136.19z" fill="#e63e11" fill-rule="evenodd"/>
<path d="m1188.7 725.9v53.909h-186.81v-265.8h183.44v53.909h-122.04v51.663h104.82v49.791h-104.82v56.53h125.41z" fill="#fff" fill-opacity=".44606"/>
<path d="m7.726 281.62h39.326c108.7 0 196.21 87.509 196.21 196.21v343.94c0 108.7-87.509 196.21-196.21 196.21h-39.326c-108.7 0-196.21-87.509-196.21-196.21v-343.94c0-108.7 87.509-196.21 196.21-196.21z" fill="#85bb2f" fill-rule="evenodd"/>
<path d="m173.44 742.36q0 22.704-8.6023 39.486-8.6023 16.781-23.543 28.134-14.941 10.859-34.862 16.782-19.921 5.4293-42.106 5.4293h-156.65v-350.44h178.84q16.752 0 30.334 7.8972 13.583 7.8972 23.09 20.73 9.5077 12.339 14.488 28.627 5.433 15.794 5.433 32.576 0 25.172-11.772 47.383-11.319 22.211-34.409 33.563 27.618 8.8843 43.464 31.589 16.299 22.704 16.299 58.242zm-75.61-16.288q0-16.288-8.6023-27.64-8.6023-11.352-21.732-11.352h-85.57v76.504h82.401q14.488 0 23.996-10.365 9.5078-10.365 9.5078-27.147zm-115.9-175.22v72.555h72.893q12.224 0 21.732-8.8844 9.5078-8.8843 9.5078-27.64 0-17.275-8.6023-26.653-8.1496-9.378-19.921-9.378h-75.609z" fill="#fff"/>
<path d="m-443.39 163.15v76.826h-31.033v-134.35h24.221l62.634 78.908v-78.908h31.033v134.35h-24.978l-61.877-76.826z" fill="#7d7d7d"/>
<path d="m-272.94 213.48q7.9475 0 13.435-3.2169 5.4876-3.406 8.8937-8.8936 3.4061-5.4876 4.7306-12.489 1.5138-7.1906 1.5138-14.57v-68.689h31.033v68.689q0 14.003-3.5953 26.113-3.4061 12.11-10.786 21.193-7.1906 9.0829-18.544 14.381-11.164 5.1092-26.681 5.1092-16.084 0-27.438-5.4876-11.354-5.4876-18.544-14.57-7.0014-9.2722-10.408-21.383-3.2168-12.11-3.2168-25.356v-68.689h31.033v68.689q0 7.7583 1.5138 14.76 1.5138 7.0014 4.9198 12.489 3.4061 5.4876 8.7045 8.7044 5.4876 3.2169 13.435 3.2169z" fill="#7d7d7d"/>
<path d="m-87.102 132.87h-40.873v107.1h-31.033v-107.1h-41.062v-27.249h112.97v27.249z" fill="#7d7d7d"/>
<path d="m-71.946 239.97v-134.35h60.553q9.4614 0 17.409 3.9738 8.1368 3.9738 14.003 10.408 5.8661 6.4337 9.0829 14.57 3.4061 8.1367 3.4061 16.463 0 6.2444-1.5138 12.11-1.5138 5.6768-4.3522 10.786-2.8383 5.1091-7.0014 9.2722-3.9737 3.9737-9.0829 6.8121l29.519 49.956h-35.007l-25.735-43.333h-20.247v43.333h-31.033zm31.033-70.392h28.384q5.4875 0 9.4613-5.1092 3.9738-5.2983 3.9738-13.435 0-8.326-4.5414-13.246-4.5414-4.9198-9.8397-4.9198h-27.438v36.71z" fill="#7d7d7d"/>
<path d="m54.821 239.97v-134.35h31.033v134.35h-31.033z" fill="#7d7d7d"/>
<path d="m109.09 201.56v-27.249h58.282v27.249h-58.282z" fill="#7d7d7d"/>
<path d="m271.07 144.98q-0.56814-0.75658-3.9738-2.8384-3.4061-2.0815-8.5152-4.3522-5.1091-2.2707-11.164-3.9738-6.0552-1.703-12.11-1.703-16.652 0-16.652 11.164 0 3.4061 1.703 5.6769 1.8923 2.2707 5.2984 4.163 3.5953 1.703 8.8936 3.2168 5.2984 1.5138 12.3 3.4061 9.6505 2.6492 17.409 5.8661 7.7584 3.0276 13.057 7.7583 5.4876 4.5414 8.326 11.164 3.0276 6.6229 3.0276 15.895 0 11.354-4.3522 19.301-4.163 7.7584-11.164 12.678-7.0014 4.7307-16.084 7.0014-9.0829 2.0815-18.733 2.0815-7.3799 0-15.138-1.1353-7.7584-1.1353-15.138-3.2168-7.3799-2.2708-14.381-5.2984-6.8121-3.0276-12.678-7.0014l13.624-27.059q0.75658 0.94595 4.9199 3.5953 4.163 2.6492 10.218 5.2983 6.2444 2.6492 13.814 4.7307 7.5691 2.0815 15.327 2.0815 16.463 0 16.463-10.029 0-3.7846-2.46-6.2445-2.46-2.4599-6.8122-4.3522-4.3522-2.0815-10.408-3.7846-5.866-1.703-12.867-3.7845-9.2721-2.8384-16.084-6.0552-6.8122-3.4061-11.354-7.7584-4.3522-4.3522-6.6229-10.029-2.0815-5.6768-2.0815-13.246 0-10.597 3.9738-18.733t10.786-13.624q6.8122-5.6768 15.706-8.5152 9.0829-2.8384 19.112-2.8384 7.0014 0 13.814 1.3246 6.8122 1.3246 13.057 3.4061t11.543 4.7306q5.4876 2.6491 10.029 5.2984l-13.624 25.735z" fill="#7d7d7d"/>
<path d="m299.12 171.66q0-12.11 4.5414-24.032 4.5414-12.111 13.246-21.572 8.7044-9.4614 21.193-15.327 12.489-5.8661 28.384-5.8661 18.923 0 32.736 8.1367 14.003 8.1367 20.815 21.193l-23.843 16.652q-2.2707-5.2983-5.8661-8.7044-3.406-3.5953-7.5691-5.6768-4.163-2.2708-8.5152-3.0276-4.3522-0.94595-8.5151-0.94595-8.8937 0-15.517 3.5953-6.6229 3.5953-10.975 9.2721-4.3522 5.6769-6.4337 12.867t-2.0815 14.57q0 7.9475 2.46 15.327 2.46 7.3799 7.0014 13.057 4.7306 5.6769 11.164 9.0829 6.6229 3.2169 14.76 3.2169 4.163 0 8.5152-0.94596 4.5414-1.1353 8.5152-3.2169 4.163-2.2707 7.5691-5.6768 3.4061-3.5953 5.4876-8.7044l25.356 14.949q-3.0276 7.3798-9.0829 13.246-5.866 5.8661-13.624 9.8397-7.7582 3.9738-16.463 6.0552-8.7045 2.0816-17.03 2.0816-14.57 0-26.87-5.8661-12.111-6.0553-21.004-15.895-8.7045-9.8397-13.624-22.329-4.7307-12.489-4.7307-25.356z" fill="#7d7d7d"/>
<path d="m494.34 241.11q-14.949 0-27.249-5.8661-12.3-5.8661-21.004-15.327-8.7045-9.6506-13.624-21.95-4.7307-12.3-4.7307-25.356 0-13.246 4.9199-25.546 5.1091-12.3 14.003-21.572 9.0829-9.4614 21.383-14.949 12.3-5.6768 26.87-5.6768 14.949 0 27.249 5.8661 12.3 5.866 21.004 15.517 8.7045 9.6506 13.435 21.95 4.7307 12.3 4.7307 24.978 0 13.246-5.1092 25.546-4.9198 12.3-13.814 21.761-8.8937 9.2721-21.193 14.949-12.3 5.6769-26.87 5.6769zm-35.007-68.122q0 7.7584 2.2707 15.138 2.2708 7.1907 6.623 12.867 4.5414 5.6768 11.164 9.0829 6.6229 3.4061 15.138 3.4061 8.8937 0 15.517-3.5953 6.6229-3.5954 10.975-9.2722 4.3522-5.866 6.4336-13.057 2.2708-7.3798 2.2708-14.949 0-7.7584-2.2708-14.949-2.2707-7.3799-6.8121-12.867-4.5414-5.6768-11.164-8.8936-6.4337-3.4061-14.949-3.4061-8.8937 0-15.517 3.5953-6.4337 3.4061-10.975 9.0829-4.3522 5.6768-6.6229 13.057-2.0815 7.1906-2.0815 14.76z" fill="#7d7d7d"/>
<path d="m579.26 239.97v-134.35h60.553q9.4614 0 17.409 3.9738 8.1367 3.9738 14.003 10.408 5.866 6.4337 9.0829 14.57 3.406 8.1367 3.406 16.463 0 6.2444-1.5138 12.11-1.5138 5.6768-4.3522 10.786-2.8384 5.1091-7.0014 9.2722-3.9738 3.9737-9.0829 6.8121l29.519 49.956h-35.007l-25.735-43.333h-20.247v43.333h-31.033zm31.033-70.392h28.384q5.4876 0 9.4614-5.1092 3.9738-5.2983 3.9738-13.435 0-8.326-4.5414-13.246-4.5414-4.9198-9.8398-4.9198h-27.438v36.71z" fill="#7d7d7d"/>
<path d="m800.45 212.72v27.249h-94.424v-134.35h92.721v27.249h-61.688v26.113h52.983v25.167h-52.983v28.573h63.391z" fill="#7d7d7d"/>
</svg>
