<svg width="72" height="72" viewBox="0 0 72 72" fill="none" xmlns="http://www.w3.org/2000/svg">
<path d="M51.1666 41.2079L45.1428 37.7292V22.5566H39.1189V34.2579L33.0951 30.7766V22.5566H27.0838V27.3079L19.554 22.9582C19.0966 22.6941 18.5777 22.5549 18.0494 22.5547C17.5212 22.5544 17.0022 22.6931 16.5445 22.9568C16.0868 23.2205 15.7065 23.5999 15.4417 24.057C15.177 24.5141 15.0371 25.0328 15.0361 25.561V49.4179H21.0474V30.7666L27.0713 34.2479V49.4179H33.0951V37.7166L39.1189 41.1979V49.4179H45.1428V44.6666L52.6725 49.0163C53.13 49.2804 53.6489 49.4196 54.1771 49.4198C54.7053 49.4201 55.2243 49.2814 55.682 49.0177C56.1397 48.754 56.5201 48.3746 56.7848 47.9175C57.0496 47.4604 57.1894 46.9417 57.1904 46.4135V22.5692H51.1666V41.2079Z" fill="black"/>
<path d="M69.1738 22.0179C65.7063 13.791 59.3056 7.14601 51.2143 3.37295C43.123 -0.400105 33.9183 -1.03202 25.3873 1.59989C16.8562 4.23179 9.6075 9.93974 5.04828 17.6156C0.489056 25.2915 -1.05535 34.3876 0.714877 43.1382C2.48511 51.8887 7.44367 59.6693 14.6279 64.9694C21.8122 70.2696 30.7096 72.7112 39.5928 71.8202C48.4761 70.9292 56.7113 66.7692 62.6998 60.1478C68.6884 53.5264 72.0029 44.916 72 35.9882C72.0035 31.1891 71.0424 26.4383 69.1738 22.0179ZM57.2341 57.1143C52.3494 62.0018 45.9211 65.0445 39.0446 65.7239C32.1681 66.4033 25.2687 64.6773 19.522 60.8402C13.7753 57.003 9.53686 51.292 7.52879 44.6802C5.52071 38.0684 5.86726 30.9649 8.50938 24.58C11.1515 18.195 15.9257 12.9237 22.0186 9.66413C28.1115 6.40456 35.1461 5.3584 41.9239 6.70392C48.7016 8.04943 54.8032 11.7034 59.1889 17.0431C63.5747 22.3829 65.9733 29.0782 65.9762 35.9882C65.9878 39.9126 65.2212 43.8004 63.7206 47.4267C62.2201 51.0529 60.0154 54.3456 57.2341 57.1143Z" fill="black"/>
</svg>
